<svg xmlns="http://www.w3.org/2000/svg" version="1.1" xmlns:xlink="http://www.w3.org/1999/xlink" xmlns:svgjs="http://svgjs.com/svgjs" width="500" height="786" preserveAspectRatio="none" viewBox="0 0 500 786"><g mask="url(&quot;#SvgjsMask1830&quot;)" fill="none"><path d="M-30.34 545.12L-30.34 545.12" stroke="rgba(60, 116, 132, 0.57)" stroke-width="1.5"></path><path d="M-30.34 545.12L57.8 550.17" stroke="rgba(60, 116, 132, 0.57)" stroke-width="1.5"></path><path d="M-30.34 545.12L-25.65 650.73" stroke="rgba(60, 116, 132, 0.57)" stroke-width="1.5"></path><path d="M-30.34 545.12L29.04 658.41" stroke="rgba(60, 116, 132, 0.57)" stroke-width="1.5"></path><path d="M-30.34 545.12L148.76 550.75" stroke="rgba(60, 116, 132, 0.57)" stroke-width="1.5"></path><path d="M-30.34 545.12L149.99 618.09" stroke="rgba(60, 116, 132, 0.57)" stroke-width="1.5"></path><path d="M-25.65 650.73L-25.65 650.73" stroke="rgba(60, 116, 132, 0.57)" stroke-width="1.5"></path><path d="M-25.65 650.73L29.04 658.41" stroke="rgba(60, 116, 132, 0.57)" stroke-width="1.5"></path><path d="M-25.65 650.73L-67.35 747.39" stroke="rgba(60, 116, 132, 0.57)" stroke-width="1.5"></path><path d="M-25.65 650.73L28.87 749.34" stroke="rgba(60, 116, 132, 0.57)" stroke-width="1.5"></path><path d="M-25.65 650.73L57.8 550.17" stroke="rgba(60, 116, 132, 0.57)" stroke-width="1.5"></path><path d="M-67.35 747.39L-67.35 747.39" stroke="rgba(60, 116, 132, 0.57)" stroke-width="1.5"></path><path d="M-67.35 747.39L28.87 749.34" stroke="rgba(60, 116, 132, 0.57)" stroke-width="1.5"></path><path d="M-67.35 747.39L-40.93 857.37" stroke="rgba(60, 116, 132, 0.57)" stroke-width="1.5"></path><path d="M-40.93 857.37L-40.93 857.37" stroke="rgba(60, 116, 132, 0.57)" stroke-width="1.5"></path><path d="M-40.93 857.37L52.8 824.22" stroke="rgba(60, 116, 132, 0.57)" stroke-width="1.5"></path><path d="M-40.93 857.37L28.87 749.34" stroke="rgba(60, 116, 132, 0.57)" stroke-width="1.5"></path><path d="M-40.93 857.37L156.47 859.03" stroke="rgba(60, 116, 132, 0.57)" stroke-width="1.5"></path><path d="M57.8 550.17L57.8 550.17" stroke="rgba(60, 116, 132, 0.57)" stroke-width="1.5"></path><path d="M57.8 550.17L148.76 550.75" stroke="rgba(60, 116, 132, 0.57)" stroke-width="1.5"></path><path d="M57.8 550.17L29.04 658.41" stroke="rgba(60, 116, 132, 0.57)" stroke-width="1.5"></path><path d="M29.04 658.41L29.04 658.41" stroke="rgba(60, 116, 132, 0.57)" stroke-width="1.5"></path><path d="M29.04 658.41L28.87 749.34" stroke="rgba(60, 116, 132, 0.57)" stroke-width="1.5"></path><path d="M29.04 658.41L149.99 618.09" stroke="rgba(60, 116, 132, 0.57)" stroke-width="1.5"></path><path d="M28.87 749.34L28.87 749.34" stroke="rgba(60, 116, 132, 0.57)" stroke-width="1.5"></path><path d="M28.87 749.34L52.8 824.22" stroke="rgba(60, 116, 132, 0.57)" stroke-width="1.5"></path><path d="M52.8 824.22L52.8 824.22" stroke="rgba(60, 116, 132, 0.57)" stroke-width="1.5"></path><path d="M148.76 550.75L148.76 550.75" stroke="rgba(60, 116, 132, 0.57)" stroke-width="1.5"></path><path d="M148.76 550.75L149.99 618.09" stroke="rgba(60, 116, 132, 0.57)" stroke-width="1.5"></path><path d="M149.99 618.09L149.99 618.09" stroke="rgba(60, 116, 132, 0.57)" stroke-width="1.5"></path><path d="M149.99 618.09L258.75 618.33" stroke="rgba(60, 116, 132, 0.57)" stroke-width="1.5"></path><path d="M149.99 618.09L57.8 550.17" stroke="rgba(60, 116, 132, 0.57)" stroke-width="1.5"></path><path d="M147.17 755.85L147.17 755.85" stroke="rgba(60, 116, 132, 0.57)" stroke-width="1.5"></path><path d="M147.17 755.85L247.97 750.73" stroke="rgba(60, 116, 132, 0.57)" stroke-width="1.5"></path><path d="M147.17 755.85L156.47 859.03" stroke="rgba(60, 116, 132, 0.57)" stroke-width="1.5"></path><path d="M156.47 859.03L156.47 859.03" stroke="rgba(60, 116, 132, 0.57)" stroke-width="1.5"></path><path d="M156.47 859.03L233.07 853.14" stroke="rgba(60, 116, 132, 0.57)" stroke-width="1.5"></path><path d="M250.66 360.5L250.66 360.5" stroke="rgba(60, 116, 132, 0.57)" stroke-width="1.5"></path><path d="M250.66 360.5L325.08 323" stroke="rgba(60, 116, 132, 0.57)" stroke-width="1.5"></path><path d="M250.66 360.5L265.28 452.88" stroke="rgba(60, 116, 132, 0.57)" stroke-width="1.5"></path><path d="M250.66 360.5L341.72 463.86" stroke="rgba(60, 116, 132, 0.57)" stroke-width="1.5"></path><path d="M250.66 360.5L247.53 520.57" stroke="rgba(60, 116, 132, 0.57)" stroke-width="1.5"></path><path d="M250.66 360.5L327.61 517.46" stroke="rgba(60, 116, 132, 0.57)" stroke-width="1.5"></path><path d="M265.28 452.88L265.28 452.88" stroke="rgba(60, 116, 132, 0.57)" stroke-width="1.5"></path><path d="M265.28 452.88L247.53 520.57" stroke="rgba(60, 116, 132, 0.57)" stroke-width="1.5"></path><path d="M265.28 452.88L341.72 463.86" stroke="rgba(60, 116, 132, 0.57)" stroke-width="1.5"></path><path d="M265.28 452.88L327.61 517.46" stroke="rgba(60, 116, 132, 0.57)" stroke-width="1.5"></path><path d="M247.53 520.57L247.53 520.57" stroke="rgba(60, 116, 132, 0.57)" stroke-width="1.5"></path><path d="M247.53 520.57L327.61 517.46" stroke="rgba(60, 116, 132, 0.57)" stroke-width="1.5"></path><path d="M247.53 520.57L258.75 618.33" stroke="rgba(60, 116, 132, 0.57)" stroke-width="1.5"></path><path d="M247.53 520.57L148.76 550.75" stroke="rgba(60, 116, 132, 0.57)" stroke-width="1.5"></path><path d="M247.53 520.57L341.72 463.86" stroke="rgba(60, 116, 132, 0.57)" stroke-width="1.5"></path><path d="M247.53 520.57L326.94 629.13" stroke="rgba(60, 116, 132, 0.57)" stroke-width="1.5"></path><path d="M258.75 618.33L258.75 618.33" stroke="rgba(60, 116, 132, 0.57)" stroke-width="1.5"></path><path d="M258.75 618.33L326.94 629.13" stroke="rgba(60, 116, 132, 0.57)" stroke-width="1.5"></path><path d="M247.97 750.73L247.97 750.73" stroke="rgba(60, 116, 132, 0.57)" stroke-width="1.5"></path><path d="M247.97 750.73L233.07 853.14" stroke="rgba(60, 116, 132, 0.57)" stroke-width="1.5"></path><path d="M247.97 750.73L360.37 730.68" stroke="rgba(60, 116, 132, 0.57)" stroke-width="1.5"></path><path d="M247.97 750.73L258.75 618.33" stroke="rgba(60, 116, 132, 0.57)" stroke-width="1.5"></path><path d="M247.97 750.73L362.74 821.68" stroke="rgba(60, 116, 132, 0.57)" stroke-width="1.5"></path><path d="M247.97 750.73L156.47 859.03" stroke="rgba(60, 116, 132, 0.57)" stroke-width="1.5"></path><path d="M233.07 853.14L233.07 853.14" stroke="rgba(60, 116, 132, 0.57)" stroke-width="1.5"></path><path d="M368.1 -28.18L368.1 -28.18" stroke="rgba(60, 116, 132, 0.57)" stroke-width="1.5"></path><path d="M368.1 -28.18L360.26 36.06" stroke="rgba(60, 116, 132, 0.57)" stroke-width="1.5"></path><path d="M368.1 -28.18L432.07 -68.39" stroke="rgba(60, 116, 132, 0.57)" stroke-width="1.5"></path><path d="M368.1 -28.18L465.96 35.36" stroke="rgba(60, 116, 132, 0.57)" stroke-width="1.5"></path><path d="M368.1 -28.18L329.22 136.8" stroke="rgba(60, 116, 132, 0.57)" stroke-width="1.5"></path><path d="M368.1 -28.18L539.66 -45.18" stroke="rgba(60, 116, 132, 0.57)" stroke-width="1.5"></path><path d="M368.1 -28.18L521.64 58.74" stroke="rgba(60, 116, 132, 0.57)" stroke-width="1.5"></path><path d="M360.26 36.06L360.26 36.06" stroke="rgba(60, 116, 132, 0.57)" stroke-width="1.5"></path><path d="M360.26 36.06L329.22 136.8" stroke="rgba(60, 116, 132, 0.57)" stroke-width="1.5"></path><path d="M360.26 36.06L465.96 35.36" stroke="rgba(60, 116, 132, 0.57)" stroke-width="1.5"></path><path d="M329.22 136.8L329.22 136.8" stroke="rgba(60, 116, 132, 0.57)" stroke-width="1.5"></path><path d="M329.22 136.8L466.04 144.5" stroke="rgba(60, 116, 132, 0.57)" stroke-width="1.5"></path><path d="M329.22 136.8L445.97 242.55" stroke="rgba(60, 116, 132, 0.57)" stroke-width="1.5"></path><path d="M325.08 323L325.08 323" stroke="rgba(60, 116, 132, 0.57)" stroke-width="1.5"></path><path d="M325.08 323L435.47 350.34" stroke="rgba(60, 116, 132, 0.57)" stroke-width="1.5"></path><path d="M341.72 463.86L341.72 463.86" stroke="rgba(60, 116, 132, 0.57)" stroke-width="1.5"></path><path d="M341.72 463.86L327.61 517.46" stroke="rgba(60, 116, 132, 0.57)" stroke-width="1.5"></path><path d="M327.61 517.46L327.61 517.46" stroke="rgba(60, 116, 132, 0.57)" stroke-width="1.5"></path><path d="M326.94 629.13L326.94 629.13" stroke="rgba(60, 116, 132, 0.57)" stroke-width="1.5"></path><path d="M326.94 629.13L420.62 659.91" stroke="rgba(60, 116, 132, 0.57)" stroke-width="1.5"></path><path d="M326.94 629.13L360.37 730.68" stroke="rgba(60, 116, 132, 0.57)" stroke-width="1.5"></path><path d="M360.37 730.68L360.37 730.68" stroke="rgba(60, 116, 132, 0.57)" stroke-width="1.5"></path><path d="M360.37 730.68L434.03 744.23" stroke="rgba(60, 116, 132, 0.57)" stroke-width="1.5"></path><path d="M360.37 730.68L362.74 821.68" stroke="rgba(60, 116, 132, 0.57)" stroke-width="1.5"></path><path d="M362.74 821.68L362.74 821.68" stroke="rgba(60, 116, 132, 0.57)" stroke-width="1.5"></path><path d="M362.74 821.68L462.89 811.73" stroke="rgba(60, 116, 132, 0.57)" stroke-width="1.5"></path><path d="M432.07 -68.39L432.07 -68.39" stroke="rgba(60, 116, 132, 0.57)" stroke-width="1.5"></path><path d="M432.07 -68.39L465.96 35.36" stroke="rgba(60, 116, 132, 0.57)" stroke-width="1.5"></path><path d="M432.07 -68.39L539.66 -45.18" stroke="rgba(60, 116, 132, 0.57)" stroke-width="1.5"></path><path d="M432.07 -68.39L360.26 36.06" stroke="rgba(60, 116, 132, 0.57)" stroke-width="1.5"></path><path d="M465.96 35.36L465.96 35.36" stroke="rgba(60, 116, 132, 0.57)" stroke-width="1.5"></path><path d="M465.96 35.36L521.64 58.74" stroke="rgba(60, 116, 132, 0.57)" stroke-width="1.5"></path><path d="M465.96 35.36L466.04 144.5" stroke="rgba(60, 116, 132, 0.57)" stroke-width="1.5"></path><path d="M465.96 35.36L539.66 -45.18" stroke="rgba(60, 116, 132, 0.57)" stroke-width="1.5"></path><path d="M466.04 144.5L466.04 144.5" stroke="rgba(60, 116, 132, 0.57)" stroke-width="1.5"></path><path d="M466.04 144.5L559.76 140.82" stroke="rgba(60, 116, 132, 0.57)" stroke-width="1.5"></path><path d="M466.04 144.5L445.97 242.55" stroke="rgba(60, 116, 132, 0.57)" stroke-width="1.5"></path><path d="M466.04 144.5L521.64 58.74" stroke="rgba(60, 116, 132, 0.57)" stroke-width="1.5"></path><path d="M445.97 242.55L445.97 242.55" stroke="rgba(60, 116, 132, 0.57)" stroke-width="1.5"></path><path d="M445.97 242.55L522.19 230.49" stroke="rgba(60, 116, 132, 0.57)" stroke-width="1.5"></path><path d="M445.97 242.55L435.47 350.34" stroke="rgba(60, 116, 132, 0.57)" stroke-width="1.5"></path><path d="M435.47 350.34L435.47 350.34" stroke="rgba(60, 116, 132, 0.57)" stroke-width="1.5"></path><path d="M435.47 350.34L547.87 363.83" stroke="rgba(60, 116, 132, 0.57)" stroke-width="1.5"></path><path d="M442.6 520.56L442.6 520.56" stroke="rgba(60, 116, 132, 0.57)" stroke-width="1.5"></path><path d="M442.6 520.56L327.61 517.46" stroke="rgba(60, 116, 132, 0.57)" stroke-width="1.5"></path><path d="M442.6 520.56L341.72 463.86" stroke="rgba(60, 116, 132, 0.57)" stroke-width="1.5"></path><path d="M442.6 520.56L561.57 516.88" stroke="rgba(60, 116, 132, 0.57)" stroke-width="1.5"></path><path d="M420.62 659.91L420.62 659.91" stroke="rgba(60, 116, 132, 0.57)" stroke-width="1.5"></path><path d="M420.62 659.91L434.03 744.23" stroke="rgba(60, 116, 132, 0.57)" stroke-width="1.5"></path><path d="M420.62 659.91L360.37 730.68" stroke="rgba(60, 116, 132, 0.57)" stroke-width="1.5"></path><path d="M420.62 659.91L529.21 646.99" stroke="rgba(60, 116, 132, 0.57)" stroke-width="1.5"></path><path d="M434.03 744.23L434.03 744.23" stroke="rgba(60, 116, 132, 0.57)" stroke-width="1.5"></path><path d="M434.03 744.23L462.89 811.73" stroke="rgba(60, 116, 132, 0.57)" stroke-width="1.5"></path><path d="M434.03 744.23L362.74 821.68" stroke="rgba(60, 116, 132, 0.57)" stroke-width="1.5"></path><path d="M434.03 744.23L529.21 646.99" stroke="rgba(60, 116, 132, 0.57)" stroke-width="1.5"></path><path d="M462.89 811.73L462.89 811.73" stroke="rgba(60, 116, 132, 0.57)" stroke-width="1.5"></path><path d="M462.89 811.73L563.9 821.88" stroke="rgba(60, 116, 132, 0.57)" stroke-width="1.5"></path><path d="M462.89 811.73L360.37 730.68" stroke="rgba(60, 116, 132, 0.57)" stroke-width="1.5"></path><path d="M462.89 811.73L420.62 659.91" stroke="rgba(60, 116, 132, 0.57)" stroke-width="1.5"></path><path d="M539.66 -45.18L539.66 -45.18" stroke="rgba(60, 116, 132, 0.57)" stroke-width="1.5"></path><path d="M539.66 -45.18L621.2 -73.58" stroke="rgba(60, 116, 132, 0.57)" stroke-width="1.5"></path><path d="M539.66 -45.18L521.64 58.74" stroke="rgba(60, 116, 132, 0.57)" stroke-width="1.5"></path><path d="M521.64 58.74L521.64 58.74" stroke="rgba(60, 116, 132, 0.57)" stroke-width="1.5"></path><path d="M521.64 58.74L559.76 140.82" stroke="rgba(60, 116, 132, 0.57)" stroke-width="1.5"></path><path d="M559.76 140.82L559.76 140.82" stroke="rgba(60, 116, 132, 0.57)" stroke-width="1.5"></path><path d="M559.76 140.82L629.09 153.52" stroke="rgba(60, 116, 132, 0.57)" stroke-width="1.5"></path><path d="M559.76 140.82L522.19 230.49" stroke="rgba(60, 116, 132, 0.57)" stroke-width="1.5"></path><path d="M559.76 140.82L637.5 232.98" stroke="rgba(60, 116, 132, 0.57)" stroke-width="1.5"></path><path d="M522.19 230.49L522.19 230.49" stroke="rgba(60, 116, 132, 0.57)" stroke-width="1.5"></path><path d="M522.19 230.49L466.04 144.5" stroke="rgba(60, 116, 132, 0.57)" stroke-width="1.5"></path><path d="M522.19 230.49L637.5 232.98" stroke="rgba(60, 116, 132, 0.57)" stroke-width="1.5"></path><path d="M522.19 230.49L629.09 153.52" stroke="rgba(60, 116, 132, 0.57)" stroke-width="1.5"></path><path d="M522.19 230.49L547.87 363.83" stroke="rgba(60, 116, 132, 0.57)" stroke-width="1.5"></path><path d="M547.87 363.83L547.87 363.83" stroke="rgba(60, 116, 132, 0.57)" stroke-width="1.5"></path><path d="M547.87 363.83L553.86 419.83" stroke="rgba(60, 116, 132, 0.57)" stroke-width="1.5"></path><path d="M547.87 363.83L659.06 363.82" stroke="rgba(60, 116, 132, 0.57)" stroke-width="1.5"></path><path d="M547.87 363.83L629.73 458.49" stroke="rgba(60, 116, 132, 0.57)" stroke-width="1.5"></path><path d="M553.86 419.83L553.86 419.83" stroke="rgba(60, 116, 132, 0.57)" stroke-width="1.5"></path><path d="M553.86 419.83L629.73 458.49" stroke="rgba(60, 116, 132, 0.57)" stroke-width="1.5"></path><path d="M553.86 419.83L561.57 516.88" stroke="rgba(60, 116, 132, 0.57)" stroke-width="1.5"></path><path d="M553.86 419.83L615.09 517.86" stroke="rgba(60, 116, 132, 0.57)" stroke-width="1.5"></path><path d="M553.86 419.83L659.06 363.82" stroke="rgba(60, 116, 132, 0.57)" stroke-width="1.5"></path><path d="M553.86 419.83L435.47 350.34" stroke="rgba(60, 116, 132, 0.57)" stroke-width="1.5"></path><path d="M561.57 516.88L561.57 516.88" stroke="rgba(60, 116, 132, 0.57)" stroke-width="1.5"></path><path d="M561.57 516.88L615.09 517.86" stroke="rgba(60, 116, 132, 0.57)" stroke-width="1.5"></path><path d="M529.21 646.99L529.21 646.99" stroke="rgba(60, 116, 132, 0.57)" stroke-width="1.5"></path><path d="M529.21 646.99L622.01 634.34" stroke="rgba(60, 116, 132, 0.57)" stroke-width="1.5"></path><path d="M563.9 821.88L563.9 821.88" stroke="rgba(60, 116, 132, 0.57)" stroke-width="1.5"></path><path d="M563.9 821.88L653.91 857.71" stroke="rgba(60, 116, 132, 0.57)" stroke-width="1.5"></path><path d="M563.9 821.88L657.99 720.41" stroke="rgba(60, 116, 132, 0.57)" stroke-width="1.5"></path><path d="M563.9 821.88L434.03 744.23" stroke="rgba(60, 116, 132, 0.57)" stroke-width="1.5"></path><path d="M621.2 -73.58L621.2 -73.58" stroke="rgba(60, 116, 132, 0.57)" stroke-width="1.5"></path><path d="M621.2 -73.58L521.64 58.74" stroke="rgba(60, 116, 132, 0.57)" stroke-width="1.5"></path><path d="M621.2 -73.58L432.07 -68.39" stroke="rgba(60, 116, 132, 0.57)" stroke-width="1.5"></path><path d="M629.09 153.52L629.09 153.52" stroke="rgba(60, 116, 132, 0.57)" stroke-width="1.5"></path><path d="M629.09 153.52L637.5 232.98" stroke="rgba(60, 116, 132, 0.57)" stroke-width="1.5"></path><path d="M629.09 153.52L521.64 58.74" stroke="rgba(60, 116, 132, 0.57)" stroke-width="1.5"></path><path d="M629.09 153.52L466.04 144.5" stroke="rgba(60, 116, 132, 0.57)" stroke-width="1.5"></path><path d="M629.09 153.52L465.96 35.36" stroke="rgba(60, 116, 132, 0.57)" stroke-width="1.5"></path><path d="M637.5 232.98L637.5 232.98" stroke="rgba(60, 116, 132, 0.57)" stroke-width="1.5"></path><path d="M637.5 232.98L659.06 363.82" stroke="rgba(60, 116, 132, 0.57)" stroke-width="1.5"></path><path d="M637.5 232.98L547.87 363.83" stroke="rgba(60, 116, 132, 0.57)" stroke-width="1.5"></path><path d="M659.06 363.82L659.06 363.82" stroke="rgba(60, 116, 132, 0.57)" stroke-width="1.5"></path><path d="M659.06 363.82L629.73 458.49" stroke="rgba(60, 116, 132, 0.57)" stroke-width="1.5"></path><path d="M659.06 363.82L615.09 517.86" stroke="rgba(60, 116, 132, 0.57)" stroke-width="1.5"></path><path d="M629.73 458.49L629.73 458.49" stroke="rgba(60, 116, 132, 0.57)" stroke-width="1.5"></path><path d="M629.73 458.49L615.09 517.86" stroke="rgba(60, 116, 132, 0.57)" stroke-width="1.5"></path><path d="M629.73 458.49L561.57 516.88" stroke="rgba(60, 116, 132, 0.57)" stroke-width="1.5"></path><path d="M615.09 517.86L615.09 517.86" stroke="rgba(60, 116, 132, 0.57)" stroke-width="1.5"></path><path d="M615.09 517.86L622.01 634.34" stroke="rgba(60, 116, 132, 0.57)" stroke-width="1.5"></path><path d="M615.09 517.86L529.21 646.99" stroke="rgba(60, 116, 132, 0.57)" stroke-width="1.5"></path><path d="M622.01 634.34L622.01 634.34" stroke="rgba(60, 116, 132, 0.57)" stroke-width="1.5"></path><path d="M622.01 634.34L657.99 720.41" stroke="rgba(60, 116, 132, 0.57)" stroke-width="1.5"></path><path d="M657.99 720.41L657.99 720.41" stroke="rgba(60, 116, 132, 0.57)" stroke-width="1.5"></path><path d="M657.99 720.41L653.91 857.71" stroke="rgba(60, 116, 132, 0.57)" stroke-width="1.5"></path><path d="M657.99 720.41L529.21 646.99" stroke="rgba(60, 116, 132, 0.57)" stroke-width="1.5"></path><path d="M657.99 720.41L615.09 517.86" stroke="rgba(60, 116, 132, 0.57)" stroke-width="1.5"></path><path d="M657.99 720.41L462.89 811.73" stroke="rgba(60, 116, 132, 0.57)" stroke-width="1.5"></path><path d="M653.91 857.71L653.91 857.71" stroke="rgba(60, 116, 132, 0.57)" stroke-width="1.5"></path><path d="M653.91 857.71L462.89 811.73" stroke="rgba(60, 116, 132, 0.57)" stroke-width="1.5"></path><path d="M653.91 857.71L622.01 634.34" stroke="rgba(60, 116, 132, 0.57)" stroke-width="1.5"></path><path d="M653.91 857.71L529.21 646.99" stroke="rgba(60, 116, 132, 0.57)" stroke-width="1.5"></path><path d="M653.91 857.71L434.03 744.23" stroke="rgba(60, 116, 132, 0.57)" stroke-width="1.5"></path><circle r="5" cx="-30.34" cy="545.12" fill="rgba(60, 116, 132, 0.57)"></circle><circle r="5" cx="-25.65" cy="650.73" fill="rgba(60, 116, 132, 0.57)"></circle><circle r="5" cx="-67.35" cy="747.39" fill="rgba(60, 116, 132, 0.57)"></circle><circle r="5" cx="-40.93" cy="857.37" fill="rgba(60, 116, 132, 0.57)"></circle><circle r="5" cx="57.8" cy="550.17" fill="rgba(60, 116, 132, 0.57)"></circle><circle r="5" cx="29.04" cy="658.41" fill="rgba(60, 116, 132, 0.57)"></circle><circle r="5" cx="28.87" cy="749.34" fill="rgba(60, 116, 132, 0.57)"></circle><circle r="5" cx="52.8" cy="824.22" fill="rgba(60, 116, 132, 0.57)"></circle><circle r="5" cx="148.76" cy="550.75" fill="rgba(60, 116, 132, 0.57)"></circle><circle r="5" cx="149.99" cy="618.09" fill="rgba(60, 116, 132, 0.57)"></circle><circle r="5" cx="147.17" cy="755.85" fill="rgba(60, 116, 132, 0.57)"></circle><circle r="5" cx="156.47" cy="859.03" fill="rgba(60, 116, 132, 0.57)"></circle><circle r="5" cx="250.66" cy="360.5" fill="rgba(60, 116, 132, 0.57)"></circle><circle r="5" cx="265.28" cy="452.88" fill="rgba(60, 116, 132, 0.57)"></circle><circle r="5" cx="247.53" cy="520.57" fill="rgba(60, 116, 132, 0.57)"></circle><circle r="5" cx="258.75" cy="618.33" fill="rgba(60, 116, 132, 0.57)"></circle><circle r="5" cx="247.97" cy="750.73" fill="rgba(60, 116, 132, 0.57)"></circle><circle r="5" cx="233.07" cy="853.14" fill="rgba(60, 116, 132, 0.57)"></circle><circle r="5" cx="368.1" cy="-28.18" fill="rgba(60, 116, 132, 0.57)"></circle><circle r="5" cx="360.26" cy="36.06" fill="rgba(60, 116, 132, 0.57)"></circle><circle r="5" cx="329.22" cy="136.8" fill="rgba(60, 116, 132, 0.57)"></circle><circle r="5" cx="325.08" cy="323" fill="rgba(60, 116, 132, 0.57)"></circle><circle r="5" cx="341.72" cy="463.86" fill="rgba(60, 116, 132, 0.57)"></circle><circle r="5" cx="327.61" cy="517.46" fill="rgba(60, 116, 132, 0.57)"></circle><circle r="5" cx="326.94" cy="629.13" fill="rgba(60, 116, 132, 0.57)"></circle><circle r="5" cx="360.37" cy="730.68" fill="rgba(60, 116, 132, 0.57)"></circle><circle r="5" cx="362.74" cy="821.68" fill="rgba(60, 116, 132, 0.57)"></circle><circle r="5" cx="432.07" cy="-68.39" fill="rgba(60, 116, 132, 0.57)"></circle><circle r="5" cx="465.96" cy="35.36" fill="rgba(60, 116, 132, 0.57)"></circle><circle r="5" cx="466.04" cy="144.5" fill="rgba(60, 116, 132, 0.57)"></circle><circle r="5" cx="445.97" cy="242.55" fill="rgba(60, 116, 132, 0.57)"></circle><circle r="5" cx="435.47" cy="350.34" fill="rgba(60, 116, 132, 0.57)"></circle><circle r="5" cx="442.6" cy="520.56" fill="rgba(60, 116, 132, 0.57)"></circle><circle r="5" cx="420.62" cy="659.91" fill="rgba(60, 116, 132, 0.57)"></circle><circle r="5" cx="434.03" cy="744.23" fill="rgba(60, 116, 132, 0.57)"></circle><circle r="5" cx="462.89" cy="811.73" fill="rgba(60, 116, 132, 0.57)"></circle><circle r="5" cx="539.66" cy="-45.18" fill="rgba(60, 116, 132, 0.57)"></circle><circle r="5" cx="521.64" cy="58.74" fill="rgba(60, 116, 132, 0.57)"></circle><circle r="5" cx="559.76" cy="140.82" fill="rgba(60, 116, 132, 0.57)"></circle><circle r="5" cx="522.19" cy="230.49" fill="rgba(60, 116, 132, 0.57)"></circle><circle r="5" cx="547.87" cy="363.83" fill="rgba(60, 116, 132, 0.57)"></circle><circle r="5" cx="553.86" cy="419.83" fill="rgba(60, 116, 132, 0.57)"></circle><circle r="5" cx="561.57" cy="516.88" fill="rgba(60, 116, 132, 0.57)"></circle><circle r="5" cx="529.21" cy="646.99" fill="rgba(60, 116, 132, 0.57)"></circle><circle r="5" cx="563.9" cy="821.88" fill="rgba(60, 116, 132, 0.57)"></circle><circle r="5" cx="621.2" cy="-73.58" fill="rgba(60, 116, 132, 0.57)"></circle><circle r="5" cx="629.09" cy="153.52" fill="rgba(60, 116, 132, 0.57)"></circle><circle r="5" cx="637.5" cy="232.98" fill="rgba(60, 116, 132, 0.57)"></circle><circle r="5" cx="659.06" cy="363.82" fill="rgba(60, 116, 132, 0.57)"></circle><circle r="5" cx="629.73" cy="458.49" fill="rgba(60, 116, 132, 0.57)"></circle><circle r="5" cx="615.09" cy="517.86" fill="rgba(60, 116, 132, 0.57)"></circle><circle r="5" cx="622.01" cy="634.34" fill="rgba(60, 116, 132, 0.57)"></circle><circle r="5" cx="657.99" cy="720.41" fill="rgba(60, 116, 132, 0.57)"></circle><circle r="5" cx="653.91" cy="857.71" fill="rgba(60, 116, 132, 0.57)"></circle><path d="M31.14 627.41L31.14 627.41" stroke="hsl(193.29999999999995, 37.5%, 48.9%)" stroke-width="1.5"></path><path d="M31.14 627.41L-44.4 629.64" stroke="hsl(193.29999999999995, 37.5%, 48.9%)" stroke-width="1.5"></path><path d="M31.14 627.41L131.09 661.03" stroke="hsl(193.29999999999995, 37.5%, 48.9%)" stroke-width="1.5"></path><path d="M31.14 627.41L58.8 744.62" stroke="hsl(193.29999999999995, 37.5%, 48.9%)" stroke-width="1.5"></path><path d="M31.14 627.41L-55.37 753.42" stroke="hsl(193.29999999999995, 37.5%, 48.9%)" stroke-width="1.5"></path><path d="M31.14 627.41L28.69 810.57" stroke="hsl(193.29999999999995, 37.5%, 48.9%)" stroke-width="1.5"></path><path d="M58.8 744.62L58.8 744.62" stroke="hsl(193.29999999999995, 37.5%, 48.9%)" stroke-width="1.5"></path><path d="M58.8 744.62L28.69 810.57" stroke="hsl(193.29999999999995, 37.5%, 48.9%)" stroke-width="1.5"></path><path d="M58.8 744.62L131.09 661.03" stroke="hsl(193.29999999999995, 37.5%, 48.9%)" stroke-width="1.5"></path><path d="M58.8 744.62L169.88 748.2" stroke="hsl(193.29999999999995, 37.5%, 48.9%)" stroke-width="1.5"></path><path d="M58.8 744.62L-55.37 753.42" stroke="hsl(193.29999999999995, 37.5%, 48.9%)" stroke-width="1.5"></path><path d="M58.8 744.62L-36.59 847.65" stroke="hsl(193.29999999999995, 37.5%, 48.9%)" stroke-width="1.5"></path><path d="M131.09 661.03L131.09 661.03" stroke="hsl(193.29999999999995, 37.5%, 48.9%)" stroke-width="1.5"></path><path d="M131.09 661.03L169.88 748.2" stroke="hsl(193.29999999999995, 37.5%, 48.9%)" stroke-width="1.5"></path><path d="M131.09 661.03L259.34 729.87" stroke="hsl(193.29999999999995, 37.5%, 48.9%)" stroke-width="1.5"></path><path d="M131.09 661.03L270.02 555.95" stroke="hsl(193.29999999999995, 37.5%, 48.9%)" stroke-width="1.5"></path><path d="M131.09 661.03L-44.4 629.64" stroke="hsl(193.29999999999995, 37.5%, 48.9%)" stroke-width="1.5"></path><path d="M270.02 555.95L270.02 555.95" stroke="hsl(193.29999999999995, 37.5%, 48.9%)" stroke-width="1.5"></path><path d="M270.02 555.95L335.09 548.48" stroke="hsl(193.29999999999995, 37.5%, 48.9%)" stroke-width="1.5"></path><path d="M270.02 555.95L351.98 630" stroke="hsl(193.29999999999995, 37.5%, 48.9%)" stroke-width="1.5"></path><path d="M330.59 442.05L330.59 442.05" stroke="hsl(193.29999999999995, 37.5%, 48.9%)" stroke-width="1.5"></path><path d="M330.59 442.05L425.9 427.59" stroke="hsl(193.29999999999995, 37.5%, 48.9%)" stroke-width="1.5"></path><path d="M330.59 442.05L335.09 548.48" stroke="hsl(193.29999999999995, 37.5%, 48.9%)" stroke-width="1.5"></path><path d="M330.59 442.05L270.02 555.95" stroke="hsl(193.29999999999995, 37.5%, 48.9%)" stroke-width="1.5"></path><path d="M330.59 442.05L423.14 329.45" stroke="hsl(193.29999999999995, 37.5%, 48.9%)" stroke-width="1.5"></path><path d="M330.59 442.05L351.98 630" stroke="hsl(193.29999999999995, 37.5%, 48.9%)" stroke-width="1.5"></path><path d="M330.59 442.05L554.89 448.06" stroke="hsl(193.29999999999995, 37.5%, 48.9%)" stroke-width="1.5"></path><path d="M351.98 630L351.98 630" stroke="hsl(193.29999999999995, 37.5%, 48.9%)" stroke-width="1.5"></path><path d="M351.98 630L420.96 659.33" stroke="hsl(193.29999999999995, 37.5%, 48.9%)" stroke-width="1.5"></path><path d="M351.98 630L335.09 548.48" stroke="hsl(193.29999999999995, 37.5%, 48.9%)" stroke-width="1.5"></path><path d="M445.77 848.29L445.77 848.29" stroke="hsl(193.29999999999995, 37.5%, 48.9%)" stroke-width="1.5"></path><path d="M445.77 848.29L528.68 821.63" stroke="hsl(193.29999999999995, 37.5%, 48.9%)" stroke-width="1.5"></path><path d="M445.77 848.29L354.08 834.96" stroke="hsl(193.29999999999995, 37.5%, 48.9%)" stroke-width="1.5"></path><path d="M545.8 142.59L545.8 142.59" stroke="hsl(193.29999999999995, 37.5%, 48.9%)" stroke-width="1.5"></path><path d="M545.8 142.59L616.89 150.56" stroke="hsl(193.29999999999995, 37.5%, 48.9%)" stroke-width="1.5"></path><path d="M545.8 142.59L454.35 158.68" stroke="hsl(193.29999999999995, 37.5%, 48.9%)" stroke-width="1.5"></path><path d="M545.8 142.59L534.72 240.44" stroke="hsl(193.29999999999995, 37.5%, 48.9%)" stroke-width="1.5"></path><path d="M553.23 660.31L553.23 660.31" stroke="hsl(193.29999999999995, 37.5%, 48.9%)" stroke-width="1.5"></path><path d="M553.23 660.31L631.89 627.53" stroke="hsl(193.29999999999995, 37.5%, 48.9%)" stroke-width="1.5"></path><path d="M553.23 660.31L520.79 748.38" stroke="hsl(193.29999999999995, 37.5%, 48.9%)" stroke-width="1.5"></path><path d="M553.23 660.31L614.85 755.5" stroke="hsl(193.29999999999995, 37.5%, 48.9%)" stroke-width="1.5"></path><path d="M553.23 660.31L562.53 536" stroke="hsl(193.29999999999995, 37.5%, 48.9%)" stroke-width="1.5"></path><path d="M553.23 660.31L420.96 659.33" stroke="hsl(193.29999999999995, 37.5%, 48.9%)" stroke-width="1.5"></path><path d="M520.79 748.38L520.79 748.38" stroke="hsl(193.29999999999995, 37.5%, 48.9%)" stroke-width="1.5"></path><path d="M520.79 748.38L528.68 821.63" stroke="hsl(193.29999999999995, 37.5%, 48.9%)" stroke-width="1.5"></path><path d="M520.79 748.38L430.2 742.14" stroke="hsl(193.29999999999995, 37.5%, 48.9%)" stroke-width="1.5"></path><path d="M614.85 755.5L614.85 755.5" stroke="hsl(193.29999999999995, 37.5%, 48.9%)" stroke-width="1.5"></path><path d="M614.85 755.5L658.41 823.28" stroke="hsl(193.29999999999995, 37.5%, 48.9%)" stroke-width="1.5"></path><path d="M614.85 755.5L520.79 748.38" stroke="hsl(193.29999999999995, 37.5%, 48.9%)" stroke-width="1.5"></path><path d="M-44.4 629.64L-44.4 629.64" stroke="hsl(193.29999999999995, 37.5%, 48.9%)" stroke-width="1.5"></path><path d="M-44.4 629.64L-55.37 753.42" stroke="hsl(193.29999999999995, 37.5%, 48.9%)" stroke-width="1.5"></path><path d="M-44.4 629.64L58.8 744.62" stroke="hsl(193.29999999999995, 37.5%, 48.9%)" stroke-width="1.5"></path><path d="M-44.4 629.64L28.69 810.57" stroke="hsl(193.29999999999995, 37.5%, 48.9%)" stroke-width="1.5"></path><path d="M-44.4 629.64L-36.59 847.65" stroke="hsl(193.29999999999995, 37.5%, 48.9%)" stroke-width="1.5"></path><path d="M-55.37 753.42L-55.37 753.42" stroke="hsl(193.29999999999995, 37.5%, 48.9%)" stroke-width="1.5"></path><path d="M-55.37 753.42L-36.59 847.65" stroke="hsl(193.29999999999995, 37.5%, 48.9%)" stroke-width="1.5"></path><path d="M-55.37 753.42L28.69 810.57" stroke="hsl(193.29999999999995, 37.5%, 48.9%)" stroke-width="1.5"></path><path d="M-55.37 753.42L131.09 661.03" stroke="hsl(193.29999999999995, 37.5%, 48.9%)" stroke-width="1.5"></path><path d="M-36.59 847.65L-36.59 847.65" stroke="hsl(193.29999999999995, 37.5%, 48.9%)" stroke-width="1.5"></path><path d="M-36.59 847.65L28.69 810.57" stroke="hsl(193.29999999999995, 37.5%, 48.9%)" stroke-width="1.5"></path><path d="M-36.59 847.65L166.12 840.74" stroke="hsl(193.29999999999995, 37.5%, 48.9%)" stroke-width="1.5"></path><path d="M28.69 810.57L28.69 810.57" stroke="hsl(193.29999999999995, 37.5%, 48.9%)" stroke-width="1.5"></path><path d="M28.69 810.57L166.12 840.74" stroke="hsl(193.29999999999995, 37.5%, 48.9%)" stroke-width="1.5"></path><path d="M28.69 810.57L169.88 748.2" stroke="hsl(193.29999999999995, 37.5%, 48.9%)" stroke-width="1.5"></path><path d="M169.88 748.2L169.88 748.2" stroke="hsl(193.29999999999995, 37.5%, 48.9%)" stroke-width="1.5"></path><path d="M169.88 748.2L259.34 729.87" stroke="hsl(193.29999999999995, 37.5%, 48.9%)" stroke-width="1.5"></path><path d="M169.88 748.2L166.12 840.74" stroke="hsl(193.29999999999995, 37.5%, 48.9%)" stroke-width="1.5"></path><path d="M169.88 748.2L224.26 827.25" stroke="hsl(193.29999999999995, 37.5%, 48.9%)" stroke-width="1.5"></path><path d="M166.12 840.74L166.12 840.74" stroke="hsl(193.29999999999995, 37.5%, 48.9%)" stroke-width="1.5"></path><path d="M166.12 840.74L224.26 827.25" stroke="hsl(193.29999999999995, 37.5%, 48.9%)" stroke-width="1.5"></path><path d="M166.12 840.74L58.8 744.62" stroke="hsl(193.29999999999995, 37.5%, 48.9%)" stroke-width="1.5"></path><path d="M166.12 840.74L259.34 729.87" stroke="hsl(193.29999999999995, 37.5%, 48.9%)" stroke-width="1.5"></path><path d="M259.34 729.87L259.34 729.87" stroke="hsl(193.29999999999995, 37.5%, 48.9%)" stroke-width="1.5"></path><path d="M259.34 729.87L332.86 715.44" stroke="hsl(193.29999999999995, 37.5%, 48.9%)" stroke-width="1.5"></path><path d="M259.34 729.87L224.26 827.25" stroke="hsl(193.29999999999995, 37.5%, 48.9%)" stroke-width="1.5"></path><path d="M224.26 827.25L224.26 827.25" stroke="hsl(193.29999999999995, 37.5%, 48.9%)" stroke-width="1.5"></path><path d="M224.26 827.25L354.08 834.96" stroke="hsl(193.29999999999995, 37.5%, 48.9%)" stroke-width="1.5"></path><path d="M224.26 827.25L332.86 715.44" stroke="hsl(193.29999999999995, 37.5%, 48.9%)" stroke-width="1.5"></path><path d="M224.26 827.25L58.8 744.62" stroke="hsl(193.29999999999995, 37.5%, 48.9%)" stroke-width="1.5"></path><path d="M335.09 548.48L335.09 548.48" stroke="hsl(193.29999999999995, 37.5%, 48.9%)" stroke-width="1.5"></path><path d="M335.09 548.48L420.96 659.33" stroke="hsl(193.29999999999995, 37.5%, 48.9%)" stroke-width="1.5"></path><path d="M335.09 548.48L425.9 427.59" stroke="hsl(193.29999999999995, 37.5%, 48.9%)" stroke-width="1.5"></path><path d="M332.86 715.44L332.86 715.44" stroke="hsl(193.29999999999995, 37.5%, 48.9%)" stroke-width="1.5"></path><path d="M332.86 715.44L351.98 630" stroke="hsl(193.29999999999995, 37.5%, 48.9%)" stroke-width="1.5"></path><path d="M354.08 834.96L354.08 834.96" stroke="hsl(193.29999999999995, 37.5%, 48.9%)" stroke-width="1.5"></path><path d="M354.08 834.96L430.2 742.14" stroke="hsl(193.29999999999995, 37.5%, 48.9%)" stroke-width="1.5"></path><path d="M422.28 -32.65L422.28 -32.65" stroke="hsl(193.29999999999995, 37.5%, 48.9%)" stroke-width="1.5"></path><path d="M422.28 -32.65L419.63 28.12" stroke="hsl(193.29999999999995, 37.5%, 48.9%)" stroke-width="1.5"></path><path d="M422.28 -32.65L564.64 -30.59" stroke="hsl(193.29999999999995, 37.5%, 48.9%)" stroke-width="1.5"></path><path d="M422.28 -32.65L560.68 27.65" stroke="hsl(193.29999999999995, 37.5%, 48.9%)" stroke-width="1.5"></path><path d="M422.28 -32.65L454.35 158.68" stroke="hsl(193.29999999999995, 37.5%, 48.9%)" stroke-width="1.5"></path><path d="M419.63 28.12L419.63 28.12" stroke="hsl(193.29999999999995, 37.5%, 48.9%)" stroke-width="1.5"></path><path d="M419.63 28.12L454.35 158.68" stroke="hsl(193.29999999999995, 37.5%, 48.9%)" stroke-width="1.5"></path><path d="M419.63 28.12L560.68 27.65" stroke="hsl(193.29999999999995, 37.5%, 48.9%)" stroke-width="1.5"></path><path d="M419.63 28.12L564.64 -30.59" stroke="hsl(193.29999999999995, 37.5%, 48.9%)" stroke-width="1.5"></path><path d="M454.35 158.68L454.35 158.68" stroke="hsl(193.29999999999995, 37.5%, 48.9%)" stroke-width="1.5"></path><path d="M454.35 158.68L440.33 222.24" stroke="hsl(193.29999999999995, 37.5%, 48.9%)" stroke-width="1.5"></path><path d="M440.33 222.24L440.33 222.24" stroke="hsl(193.29999999999995, 37.5%, 48.9%)" stroke-width="1.5"></path><path d="M440.33 222.24L534.72 240.44" stroke="hsl(193.29999999999995, 37.5%, 48.9%)" stroke-width="1.5"></path><path d="M440.33 222.24L423.14 329.45" stroke="hsl(193.29999999999995, 37.5%, 48.9%)" stroke-width="1.5"></path><path d="M423.14 329.45L423.14 329.45" stroke="hsl(193.29999999999995, 37.5%, 48.9%)" stroke-width="1.5"></path><path d="M423.14 329.45L425.9 427.59" stroke="hsl(193.29999999999995, 37.5%, 48.9%)" stroke-width="1.5"></path><path d="M423.14 329.45L554.26 325.84" stroke="hsl(193.29999999999995, 37.5%, 48.9%)" stroke-width="1.5"></path><path d="M423.14 329.45L534.72 240.44" stroke="hsl(193.29999999999995, 37.5%, 48.9%)" stroke-width="1.5"></path><path d="M425.9 427.59L425.9 427.59" stroke="hsl(193.29999999999995, 37.5%, 48.9%)" stroke-width="1.5"></path><path d="M425.9 427.59L554.89 448.06" stroke="hsl(193.29999999999995, 37.5%, 48.9%)" stroke-width="1.5"></path><path d="M425.9 427.59L554.26 325.84" stroke="hsl(193.29999999999995, 37.5%, 48.9%)" stroke-width="1.5"></path><path d="M420.96 659.33L420.96 659.33" stroke="hsl(193.29999999999995, 37.5%, 48.9%)" stroke-width="1.5"></path><path d="M420.96 659.33L430.2 742.14" stroke="hsl(193.29999999999995, 37.5%, 48.9%)" stroke-width="1.5"></path><path d="M420.96 659.33L332.86 715.44" stroke="hsl(193.29999999999995, 37.5%, 48.9%)" stroke-width="1.5"></path><path d="M420.96 659.33L520.79 748.38" stroke="hsl(193.29999999999995, 37.5%, 48.9%)" stroke-width="1.5"></path><path d="M430.2 742.14L430.2 742.14" stroke="hsl(193.29999999999995, 37.5%, 48.9%)" stroke-width="1.5"></path><path d="M430.2 742.14L332.86 715.44" stroke="hsl(193.29999999999995, 37.5%, 48.9%)" stroke-width="1.5"></path><path d="M430.2 742.14L445.77 848.29" stroke="hsl(193.29999999999995, 37.5%, 48.9%)" stroke-width="1.5"></path><path d="M564.64 -30.59L564.64 -30.59" stroke="hsl(193.29999999999995, 37.5%, 48.9%)" stroke-width="1.5"></path><path d="M564.64 -30.59L560.68 27.65" stroke="hsl(193.29999999999995, 37.5%, 48.9%)" stroke-width="1.5"></path><path d="M564.64 -30.59L625.02 -52.96" stroke="hsl(193.29999999999995, 37.5%, 48.9%)" stroke-width="1.5"></path><path d="M564.64 -30.59L649.52 29.98" stroke="hsl(193.29999999999995, 37.5%, 48.9%)" stroke-width="1.5"></path><path d="M560.68 27.65L560.68 27.65" stroke="hsl(193.29999999999995, 37.5%, 48.9%)" stroke-width="1.5"></path><path d="M560.68 27.65L649.52 29.98" stroke="hsl(193.29999999999995, 37.5%, 48.9%)" stroke-width="1.5"></path><path d="M560.68 27.65L625.02 -52.96" stroke="hsl(193.29999999999995, 37.5%, 48.9%)" stroke-width="1.5"></path><path d="M560.68 27.65L545.8 142.59" stroke="hsl(193.29999999999995, 37.5%, 48.9%)" stroke-width="1.5"></path><path d="M560.68 27.65L616.89 150.56" stroke="hsl(193.29999999999995, 37.5%, 48.9%)" stroke-width="1.5"></path><path d="M534.72 240.44L534.72 240.44" stroke="hsl(193.29999999999995, 37.5%, 48.9%)" stroke-width="1.5"></path><path d="M534.72 240.44L554.26 325.84" stroke="hsl(193.29999999999995, 37.5%, 48.9%)" stroke-width="1.5"></path><path d="M534.72 240.44L454.35 158.68" stroke="hsl(193.29999999999995, 37.5%, 48.9%)" stroke-width="1.5"></path><path d="M534.72 240.44L616.89 150.56" stroke="hsl(193.29999999999995, 37.5%, 48.9%)" stroke-width="1.5"></path><path d="M554.26 325.84L554.26 325.84" stroke="hsl(193.29999999999995, 37.5%, 48.9%)" stroke-width="1.5"></path><path d="M554.26 325.84L554.89 448.06" stroke="hsl(193.29999999999995, 37.5%, 48.9%)" stroke-width="1.5"></path><path d="M554.26 325.84L440.33 222.24" stroke="hsl(193.29999999999995, 37.5%, 48.9%)" stroke-width="1.5"></path><path d="M554.89 448.06L554.89 448.06" stroke="hsl(193.29999999999995, 37.5%, 48.9%)" stroke-width="1.5"></path><path d="M554.89 448.06L562.53 536" stroke="hsl(193.29999999999995, 37.5%, 48.9%)" stroke-width="1.5"></path><path d="M554.89 448.06L632.7 541.17" stroke="hsl(193.29999999999995, 37.5%, 48.9%)" stroke-width="1.5"></path><path d="M562.53 536L562.53 536" stroke="hsl(193.29999999999995, 37.5%, 48.9%)" stroke-width="1.5"></path><path d="M562.53 536L632.7 541.17" stroke="hsl(193.29999999999995, 37.5%, 48.9%)" stroke-width="1.5"></path><path d="M562.53 536L631.89 627.53" stroke="hsl(193.29999999999995, 37.5%, 48.9%)" stroke-width="1.5"></path><path d="M562.53 536L425.9 427.59" stroke="hsl(193.29999999999995, 37.5%, 48.9%)" stroke-width="1.5"></path><path d="M528.68 821.63L528.68 821.63" stroke="hsl(193.29999999999995, 37.5%, 48.9%)" stroke-width="1.5"></path><path d="M528.68 821.63L614.85 755.5" stroke="hsl(193.29999999999995, 37.5%, 48.9%)" stroke-width="1.5"></path><path d="M528.68 821.63L430.2 742.14" stroke="hsl(193.29999999999995, 37.5%, 48.9%)" stroke-width="1.5"></path><path d="M528.68 821.63L658.41 823.28" stroke="hsl(193.29999999999995, 37.5%, 48.9%)" stroke-width="1.5"></path><path d="M528.68 821.63L553.23 660.31" stroke="hsl(193.29999999999995, 37.5%, 48.9%)" stroke-width="1.5"></path><path d="M625.02 -52.96L625.02 -52.96" stroke="hsl(193.29999999999995, 37.5%, 48.9%)" stroke-width="1.5"></path><path d="M625.02 -52.96L649.52 29.98" stroke="hsl(193.29999999999995, 37.5%, 48.9%)" stroke-width="1.5"></path><path d="M625.02 -52.96L616.89 150.56" stroke="hsl(193.29999999999995, 37.5%, 48.9%)" stroke-width="1.5"></path><path d="M625.02 -52.96L422.28 -32.65" stroke="hsl(193.29999999999995, 37.5%, 48.9%)" stroke-width="1.5"></path><path d="M625.02 -52.96L545.8 142.59" stroke="hsl(193.29999999999995, 37.5%, 48.9%)" stroke-width="1.5"></path><path d="M649.52 29.98L649.52 29.98" stroke="hsl(193.29999999999995, 37.5%, 48.9%)" stroke-width="1.5"></path><path d="M616.89 150.56L616.89 150.56" stroke="hsl(193.29999999999995, 37.5%, 48.9%)" stroke-width="1.5"></path><path d="M616.89 150.56L649.52 29.98" stroke="hsl(193.29999999999995, 37.5%, 48.9%)" stroke-width="1.5"></path><path d="M616.89 150.56L454.35 158.68" stroke="hsl(193.29999999999995, 37.5%, 48.9%)" stroke-width="1.5"></path><path d="M632.7 541.17L632.7 541.17" stroke="hsl(193.29999999999995, 37.5%, 48.9%)" stroke-width="1.5"></path><path d="M632.7 541.17L631.89 627.53" stroke="hsl(193.29999999999995, 37.5%, 48.9%)" stroke-width="1.5"></path><path d="M632.7 541.17L553.23 660.31" stroke="hsl(193.29999999999995, 37.5%, 48.9%)" stroke-width="1.5"></path><path d="M632.7 541.17L614.85 755.5" stroke="hsl(193.29999999999995, 37.5%, 48.9%)" stroke-width="1.5"></path><path d="M631.89 627.53L631.89 627.53" stroke="hsl(193.29999999999995, 37.5%, 48.9%)" stroke-width="1.5"></path><path d="M658.41 823.28L658.41 823.28" stroke="hsl(193.29999999999995, 37.5%, 48.9%)" stroke-width="1.5"></path><circle r="25" cx="31.14" cy="627.41" fill="url(#SvgjsRadialGradient1831)"></circle><circle r="25" cx="58.8" cy="744.62" fill="url(#SvgjsRadialGradient1831)"></circle><circle r="25" cx="131.09" cy="661.03" fill="url(#SvgjsRadialGradient1831)"></circle><circle r="25" cx="270.02" cy="555.95" fill="url(#SvgjsRadialGradient1831)"></circle><circle r="25" cx="330.59" cy="442.05" fill="url(#SvgjsRadialGradient1831)"></circle><circle r="25" cx="351.98" cy="630" fill="url(#SvgjsRadialGradient1831)"></circle><circle r="25" cx="445.77" cy="848.29" fill="url(#SvgjsRadialGradient1831)"></circle><circle r="25" cx="545.8" cy="142.59" fill="url(#SvgjsRadialGradient1831)"></circle><circle r="25" cx="553.23" cy="660.31" fill="url(#SvgjsRadialGradient1831)"></circle><circle r="25" cx="520.79" cy="748.38" fill="url(#SvgjsRadialGradient1831)"></circle><circle r="25" cx="614.85" cy="755.5" fill="url(#SvgjsRadialGradient1831)"></circle><circle r="5" cx="-44.4" cy="629.64" fill="#9ebac2"></circle><circle r="5" cx="-55.37" cy="753.42" fill="#9ebac2"></circle><circle r="5" cx="-36.59" cy="847.65" fill="#9ebac2"></circle><circle r="5" cx="28.69" cy="810.57" fill="#9ebac2"></circle><circle r="5" cx="169.88" cy="748.2" fill="#9ebac2"></circle><circle r="5" cx="166.12" cy="840.74" fill="#9ebac2"></circle><circle r="5" cx="259.34" cy="729.87" fill="#9ebac2"></circle><circle r="5" cx="224.26" cy="827.25" fill="#9ebac2"></circle><circle r="5" cx="335.09" cy="548.48" fill="#9ebac2"></circle><circle r="5" cx="332.86" cy="715.44" fill="#9ebac2"></circle><circle r="5" cx="354.08" cy="834.96" fill="#9ebac2"></circle><circle r="5" cx="422.28" cy="-32.65" fill="#9ebac2"></circle><circle r="5" cx="419.63" cy="28.12" fill="#9ebac2"></circle><circle r="5" cx="454.35" cy="158.68" fill="#9ebac2"></circle><circle r="5" cx="440.33" cy="222.24" fill="#9ebac2"></circle><circle r="5" cx="423.14" cy="329.45" fill="#9ebac2"></circle><circle r="5" cx="425.9" cy="427.59" fill="#9ebac2"></circle><circle r="5" cx="420.96" cy="659.33" fill="#9ebac2"></circle><circle r="5" cx="430.2" cy="742.14" fill="#9ebac2"></circle><circle r="5" cx="564.64" cy="-30.59" fill="#9ebac2"></circle><circle r="5" cx="560.68" cy="27.65" fill="#9ebac2"></circle><circle r="5" cx="534.72" cy="240.44" fill="#9ebac2"></circle><circle r="5" cx="554.26" cy="325.84" fill="#9ebac2"></circle><circle r="5" cx="554.89" cy="448.06" fill="#9ebac2"></circle><circle r="5" cx="562.53" cy="536" fill="#9ebac2"></circle><circle r="5" cx="528.68" cy="821.63" fill="#9ebac2"></circle><circle r="5" cx="625.02" cy="-52.96" fill="#9ebac2"></circle><circle r="5" cx="649.52" cy="29.98" fill="#9ebac2"></circle><circle r="5" cx="616.89" cy="150.56" fill="#9ebac2"></circle><circle r="5" cx="632.7" cy="541.17" fill="#9ebac2"></circle><circle r="5" cx="631.89" cy="627.53" fill="#9ebac2"></circle><circle r="5" cx="658.41" cy="823.28" fill="#9ebac2"></circle></g><defs><mask id="SvgjsMask1830"><rect width="500" height="786" fill="#ffffff"></rect></mask><radialGradient id="SvgjsRadialGradient1831"><stop stop-color="#ffffff" offset="0.1"></stop><stop stop-color="rgba(60, 116, 132, 1)" offset="0.2"></stop><stop stop-color="rgba(60, 116, 132, 0)" offset="1"></stop></radialGradient></defs></svg>